<?xml version="1.0" ?><!DOCTYPE svg  PUBLIC '-//W3C//DTD SVG 1.1//EN'  'http://www.w3.org/Graphics/SVG/1.1/DTD/svg11.dtd'><svg height="512px" style="enable-background:new 0 0 512 512;" version="1.1" viewBox="0 0 512 512" width="512px" xml:space="preserve" xmlns="http://www.w3.org/2000/svg" xmlns:xlink="http://www.w3.org/1999/xlink"><g id="whatsapp__x2C__icons__x2C__logo__x2C__social__x2C__media"><g><g><path d="M124.369,22.179H387.92     c56.246,0,102.193,45.945,102.193,102.19v263.262c0,56.244-45.947,102.473-102.193,102.473H124.369     c-56.243,0-102.18-46.229-102.18-102.473V124.369C22.189,68.124,68.126,22.179,124.369,22.179L124.369,22.179z" style="fill-rule:evenodd;clip-rule:evenodd;fill:#C0DDCD;"/></g><g><path d="M400.586,255.998c0,79.804-64.777,144.587-144.586,144.587     c-79.801,0-144.294-64.783-144.294-144.587c0-79.808,64.493-144.584,144.294-144.584     C335.809,111.414,400.586,176.19,400.586,255.998L400.586,255.998z" style="fill-rule:evenodd;clip-rule:evenodd;fill:#FEFEFE;"/></g><g><path d="M405.889,255.998c0,82.742-67.139,149.887-149.889,149.887     c-82.744,0-149.589-67.145-149.589-149.887c0-82.751,66.845-149.891,149.589-149.891     C338.75,106.107,405.889,173.247,405.889,255.998L405.889,255.998z" style="fill-rule:evenodd;clip-rule:evenodd;fill:#20B07F;"/></g><g><path d="M257.764,319.892c-15.014,0-28.853-4.412-40.336-11.78     l-28.274,8.839l9.133-27.09c-8.544-11.773-13.841-26.503-13.841-42.402c0-2.355,0.294-4.72,0.294-7.069     c3.532-36.808,35.041-65.669,73.024-65.669c38.287,0,70.09,29.449,73.035,66.845c0,2.067,0.293,3.834,0.293,5.894     C331.092,287.513,298.113,319.892,257.764,319.892L257.764,319.892z M297.52,264.825c-2.055-1.175-12.658-6.178-14.424-7.062     c-2.061-0.587-3.541-0.882-5.012,1.178c-1.178,2.058-5.293,6.777-6.768,8.248c-1.174,1.472-2.361,1.765-4.424,0.588     c-2.352-0.881-9.129-3.246-17.368-10.601c-6.188-5.6-10.601-12.367-11.775-14.438c-1.18-2.35,0-3.529,0.882-4.411     c1.176-0.884,2.06-2.646,3.236-3.826c0.296-0.293,0.589-0.587,0.883-0.882c0.587-0.881,0.882-1.469,1.176-2.658     c0.882-1.47,0.587-2.646,0-3.53c-0.589-1.176-5.002-11.484-6.766-15.896c-1.776-4.128-3.539-3.541-4.719-3.541     c-1.177,0-2.646,0-4.117,0s-3.54,0.294-5.6,2.658c-2.06,2.059-7.65,7.062-7.65,17.663c0,2.353,0.589,4.718,1.176,7.07     c2.354,7.66,6.766,13.544,7.649,14.72c1.178,1.473,14.731,23.56,36.522,32.098c21.791,8.546,21.791,5.604,25.617,5.311     c3.822-0.297,12.66-5.311,14.424-10.31c1.779-4.721,1.779-9.129,1.178-10.014C301.055,266.306,299.873,265.719,297.52,264.825     L297.52,264.825z M344.635,245.103c-1.174-46.535-39.455-84.224-86.871-84.224c-46.82,0-85.095,36.809-87.156,82.753     c0,1.178,0,2.354,0,3.826c0,16.192,4.416,31.509,12.369,44.464l-15.615,46.525l48.302-15.31     c12.366,6.768,26.793,10.603,42.101,10.603c48.008,0,87.164-38.58,87.164-86.282     C344.928,246.575,344.928,245.985,344.635,245.103L344.635,245.103z" style="fill-rule:evenodd;clip-rule:evenodd;fill:#FEFEFE;"/></g><g><path d="M124.369,16h8.54h51.83h10.308c3.239,0,5.886,2.65,5.886,6.179l0,0     c0,3.247-2.646,5.896-5.886,5.896h-10.308h-51.83h-8.54c-26.5,0-50.35,10.894-68.021,28.272     c-17.37,17.369-27.972,41.514-27.972,68.022v71.554c0.295-0.296,0.882-0.296,1.471-0.296h10.015c3.528,0,6.177,2.647,6.177,5.895     l0,0c0,3.53-2.648,6.179-6.177,6.179H29.848c-0.589,0-1.176,0-1.471-0.294v180.225c0,2.351,0,4.706,0,6.764     c0.295,0,0.588,0,0.588,0h167.847c-17.669-7.647-33.862-18.541-47.11-31.803c-24.157-24.145-40.053-55.948-43.584-91.576H68.419     c-3.234,0-6.18-2.648-6.18-6.19l0,0c0-3.235,2.945-5.884,6.18-5.884h37.11c0-1.178,0-2.06,0-2.943     c0-16.789,2.649-32.979,7.944-48.005H65.771c-3.237,0-6.189-2.941-6.189-6.179l0,0c0-3.247,2.952-6.188,6.189-6.188h50.947     c0.589,0,0.883,0,1.176,0.296c7.649-17.369,18.547-33.275,31.807-46.525c13.248-13.25,29.441-24.145,47.11-31.805h-67.138     c-3.237,0-6.188-2.646-6.188-6.179l0,0c0-3.247,2.95-5.894,6.188-5.894H256c41.816,0,79.219,16.79,106.6,43.877     c27.383,27.38,44.174,65.08,44.174,106.601c0,41.514-16.791,79.214-44.174,106.594c-27.381,27.097-64.783,44.174-106.6,44.174     c-1.473,0-3.237-0.294-5.002-0.294c-0.295,0-0.589,0.294-0.882,0.294H30.145c3.824,18.845,13.246,35.635,26.204,48.883     c17.671,17.371,41.521,28.268,68.021,28.268h13.847h19.429h61.843c3.237,0,6.188,2.658,6.188,6.188l0,0     c0,3.235-2.95,5.896-6.188,5.896h-61.843h-19.429h-13.847c-29.735,0-56.834-12.084-76.564-31.806     c-19.428-19.438-31.803-46.535-31.803-76.563V124.369c0-29.745,12.375-56.832,31.803-76.564C67.535,28.074,94.634,16,124.369,16     L124.369,16z M328.15,483.916h-9.426c-3.234,0-6.189,2.658-6.189,6.188l0,0c0,3.235,2.955,5.896,6.189,5.896h9.426     c3.529,0,6.178-2.661,6.178-5.896l0,0C334.328,486.574,331.68,483.916,328.15,483.916L328.15,483.916z M281.328,483.916h-31.212     c-3.247,0-6.19,2.658-6.19,6.188l0,0c0,3.235,2.943,5.896,6.19,5.896h31.212c3.236,0,6.178-2.661,6.178-5.896l0,0     C287.506,486.574,284.564,483.916,281.328,483.916L281.328,483.916z M357.893,483.916h-5.01c-3.238,0-6.18,2.658-6.18,6.188l0,0     c0,3.235,2.941,5.896,6.18,5.896h5.01h26.793h3.234c29.746,0,56.836-12.084,76.275-31.806     c19.729-19.438,31.803-46.535,31.803-76.563V124.369c0-29.745-12.074-56.832-31.803-76.564     C445.65,29.252,420.318,17.176,392.344,16c-0.293,0-0.881,0-1.174,0h-3.25h-11.186H264.836c-3.24,0-6.18,2.65-6.18,6.179l0,0     c0,3.247,2.939,5.896,6.18,5.896h111.898h11.186c26.217,0,50.365,10.894,67.729,28.272     c17.379,17.369,28.275,41.514,28.275,68.022v263.262c0,26.499-10.896,50.641-28.275,68.018     c-17.363,17.371-41.512,28.268-67.729,28.268h-3.234H357.893z M223.899,16h14.731c3.532,0,6.177,2.65,6.177,6.179l0,0     c0,3.247-2.645,5.896-6.177,5.896h-14.731c-3.234,0-6.179-2.648-6.179-5.896l0,0C217.721,18.65,220.665,16,223.899,16L223.899,16     z M47.512,258.941h-7.649c-3.541,0-6.189,2.648-6.189,5.884l0,0c0,3.542,2.648,6.19,6.189,6.19h7.649     c3.539,0,6.188-2.648,6.188-6.19l0,0C53.699,261.59,51.051,258.941,47.512,258.941L47.512,258.941z M99.342,105.521H81.963     c-3.53,0-6.179,2.646-6.179,5.894l0,0c0,3.532,2.648,6.179,6.179,6.179h17.379c3.235,0,6.188-2.646,6.188-6.179l0,0     C105.529,108.167,102.577,105.521,99.342,105.521L99.342,105.521z M354.061,354.06c25.027-25.035,40.639-59.783,40.639-98.062     c0-38.285-15.611-72.736-40.639-97.764c-25.029-25.028-59.773-40.642-98.061-40.642c-38.279,0-72.729,15.613-97.769,40.642     c-25.027,25.027-40.63,59.479-40.63,97.764c0,38.278,15.603,73.026,40.63,98.062c25.039,25.029,59.489,40.335,97.769,40.335     C294.287,394.395,329.031,379.089,354.061,354.06L354.061,354.06z" style="fill:#20B07F;"/></g></g></g><g id="Layer_1"/></svg>