<?xml version="1.0" ?><svg id="Layer_1" style="enable-background:new 0 0 512 512;" version="1.1" viewBox="0 0 512 512" xml:space="preserve" xmlns="http://www.w3.org/2000/svg" xmlns:xlink="http://www.w3.org/1999/xlink"><style type="text/css">
	.st0{fill:#333333;}
	.st1{fill:#4D4D4D;}
</style><g><path class="st0" d="M321.1,381.3c-7.8,0-15.8-1.2-24.1-3.5c-85.2-24.1-129.7-84.9-144.3-104.8c-23.7-32.3-33.3-65.2-27.1-92.9   c4.3-19,18.2-33.4,26.1-40.3c5-4.4,11.5-6.6,18.1-6.2l16.2,0.9c5.5,0.3,10.3,3.6,12.4,8.7l23.5,55c2.2,5,1.2,10.9-2.3,15   l-20.5,23.7c0,0.1,0,0.1,0,0.2c25.9,49.9,73.4,69.8,87.4,74.7c0.1,0,0.1,0,0.1-0.1L308,284c4.1-5.3,11.3-7.1,17.4-4.3l54.5,25.1   c6.1,2.8,9.4,9.4,8,16c0,0,0,0,0,0l-2.6,12c-3.3,15.2-12.5,28.7-25.3,36.9C348.1,377.5,335.1,381.3,321.1,381.3z M168.4,145.5   c-3.3,0-6.4,1.2-8.9,3.3c-6.8,5.9-18.7,18.2-22.3,33.8c-5.4,24.2,3.5,53.7,25,83.1c14,19.1,56.7,77.4,137.9,100.4   c19.9,5.6,37.9,3.4,53.4-6.5c10.1-6.5,17.4-17.2,20-29.3l2.6-12c0.2-1.1-0.3-2.2-1.3-2.6l-54.5-25.1c-1-0.5-2.2-0.2-2.9,0.7   l-21.4,27.7c-3.2,4.2-8.7,5.8-13.6,4.1c-15-5.3-66.1-26.7-94.1-80.5c-2.3-4.5-1.7-9.8,1.6-13.6l20.4-23.7c0.6-0.7,0.7-1.6,0.4-2.5   l-23.5-55c-0.4-0.8-1.1-1.4-2-1.4l-16.1-0.9C168.9,145.6,168.6,145.5,168.4,145.5z M382.1,319.7L382.1,319.7L382.1,319.7z"/></g><g><path class="st0" d="M7,513.3c-1.6,0-3.1-0.6-4.3-1.8c-1.5-1.5-2.1-3.8-1.5-5.8l34.2-121.4C13.3,345.8,1.6,302,1.6,257.4   C1.6,117,115.9,2.7,256.3,2.7S511,117,511,257.4S396.8,512.1,256.3,512.1c-42.8,0-85.1-10.8-122.4-31.3L8.5,513.1   C8,513.2,7.5,513.3,7,513.3z M134.8,468.4c1,0,2,0.3,2.9,0.8c36.1,20.2,77.1,30.9,118.6,30.9c133.8,0,242.7-108.9,242.7-242.7   c0-133.8-108.9-242.7-242.7-242.7c-133.8,0-242.7,108.9-242.7,242.7c0,43.3,11.6,85.8,33.4,122.9c0.8,1.4,1,3.1,0.6,4.7L15.6,498.9   l117.7-30.3C133.8,468.4,134.3,468.4,134.8,468.4z"/></g><g><path class="st1" d="M104.1,34.7c5.3-3.9,10.8-7.6,16.9-10c7-2.7,14.7-3.5,22-5.4c11.1-2.9,21.4-8.3,31.6-13.8   C119,5.1,63.3,4.7,7.7,4.3c-1,28.2-2,56.5-3,84.7c-1,27.3-4.6,56-2.7,83.2c6.4-0.8,12.7-28.7,15.8-35.6c6.3-13.7,14.1-26.8,23-39.1   C57.6,74.3,79.6,50,104.1,34.7z"/></g><g><path class="st1" d="M19.3,365.5c3.6,15.5,6.1,31.7,2.9,47.4c-4,19.4-16.5,36.8-17.3,56.6c0.9-23.6-0.9-47.3,0.4-71   c0.6-11.5-4.7-57.1,5.1-62.7C15.3,343.9,17.1,356.1,19.3,365.5z"/></g><g><path class="st1" d="M32.6,510.5c5.8-0.1,11.5-1.7,17.1-3.2c25.3-6.9,51.2-11.7,77.4-14.4c3.1-0.3,6.2-0.6,9.2,0.1   c4.6,1,8.3,4.1,12.2,6.6c9.2,5.9,20.1,9,31,8.9c-44,3.9-88.3-1.1-132.3-6.1"/></g><g><path class="st1" d="M414,470.8c19.4-14.6,34.7-33.9,49.3-53.3c19.7-26.3,39.4-55.6,39.1-88.4c-1.3,55.8-2.6,111.7-3.9,167.5   c0,2.1-0.2,4.3-1.6,5.8c-1.5,1.6-4,1.8-6.3,1.9c-26.6,0.8-53.3,1.3-80,1.5c-13.5,0.1-27.1,0.1-40.6,0.1c-9.3,0-25.6,2.9-33.5-2   C364.2,496.4,390.8,488.3,414,470.8z"/></g><g><path class="st1" d="M502.2,19c-0.4-2.4-0.8-4.8-2-6.9c-3.8-6.9-13.4-7.2-21.3-6.7c-51.7,3.4-103.6,3.9-155.3,1.5   c9.5-2.8,19.7,0.4,29,3.8c44.7,16.5,89.5,41.6,112.2,83.5c9.2,17,14.5,35.7,24.3,52.5c2.5,4.4,6.8,15.7,12.5,14.2   c5.2-1.4,5.8-15.4,6.1-19.2C511.6,101.2,508.5,59,502.2,19z"/></g><g><path class="st1" d="M478.6,256.5c-5.5-26.9-10.9-53.8-16.4-80.6c-2-9.9-4.1-20-9.1-28.8c-5.7-10.1-14.8-17.8-22.2-26.8   c-10-12.3-16.8-27.2-27.4-39c-9.3-10.4-21.3-18-33.7-24.5C327.9,35,279.4,26,232.5,31.2c-42.2,4.7-83.1,21-117.1,46.4   c-10.8,7.1-22.3,16.4-25.2,19.6c-32,35.1-53,80-59.7,127c-3.1,21.9-3.1,44.3-0.1,66.2c0.7,5.4,1.7,10.8,2.8,16.2   c3.9,19,10.2,37.5,18.6,55c0.2,0.4,0.4,0.8,0.6,1.2c4.8,9.7,10.3,19.5,10.5,30.3c0.2,7.9-2.5,15.5-5.1,23   c-4.8,13.4-9.5,26.9-14.3,40.3c-1.7,4.7-6.8,13.7-7,19.7c-0.1,3.5,1.6,6,6.7,6c5.7,0,12.3-2.1,18.8-4.8c6.9-2.8,13.7-6.2,19.3-8.2   c6.7-2.4,13.4-4.8,20.1-7.1c5.1-1.8,13.1-6.6,18.5-6.6c5.7-2,11.7-4.1,17.7-3.6c5.8,0.4,11.1,3.2,16.4,5.6   c10.2,4.8,20.7,8.9,31.5,12.2c36.2,11.3,75,14.2,112.3,7.5c48.4-8.7,93.9-33.8,126-71c2.4-2.8,15.6-17.3,23.6-28.3   c3.3-3.6,6.5-7.2,9.5-11c0.2-0.2,0.4-0.5,0.6-0.7c12.7-16.4,22.3-35.6,25.4-56c0.5-3.5,0.9-7,1-10.5   C484.4,285.1,481.5,270.7,478.6,256.5z M387,228c2.3-0.2,4.3,1.6,4.4,3.8c0.2,2.3-1.6,4.3-3.9,4.4c-2.3,0.2-4.3-1.6-4.4-3.8   C383,230.1,384.7,228.2,387,228z M375.2,251.1c5.1-0.4,9.5,3.5,9.9,8.6c0.4,5.1-3.5,9.5-8.6,9.9c-5.1,0.4-9.5-3.5-9.9-8.6   C366.3,255.9,370.1,251.5,375.2,251.1z M107.2,382.2c-3.3,1-6.7-0.9-7.7-4.2c-1-3.3,0.9-6.8,4.2-7.7c3.3-1,6.7,0.9,7.7,4.2   C112.4,377.7,110.5,381.2,107.2,382.2z M101.9,434.4c-7.3,2.2-15-2-17.2-9.3s2-15,9.3-17.2s15,2,17.2,9.3   C113.4,424.5,109.2,432.2,101.9,434.4z M145,419.9c-10.1,3-20.8-2.7-23.9-12.9c-3-10.2,2.8-20.8,12.9-23.9   c10.2-3,20.8,2.8,23.9,12.9C160.9,406.2,155.1,416.9,145,419.9z M403.2,316.9c-1.1,9.7-2.2,19.7-6.4,28.5c-0.5,1-0.9,1.9-1.5,2.8   c-8,14-22.7,23.2-34,35l-0.1,0.1c-13.9,8.7-30.7,13.1-47.2,13.4c-24.3,0.5-48.2-6.9-70.7-16.3c-14.7-6.2-29.1-13.3-42-22.6   c-5-3.6-9.8-7.6-14.3-11.8c-17.7-16.2-32.1-36.1-45.8-56c-3.3-4.8-6.6-9.5-9.6-14.5c-1.3-2.2-2.6-4.4-3.8-6.6   c-2.2-4.1-4.1-8.3-5.6-12.7c-0.9-2.7-1.7-5.5-2.4-8.3c-2.6-11.3-3-23.1-3.2-34.8c-0.3-25.4,1.2-52.7,13.8-74c0.6-1,1.5-1.8,2.5-2.3   c14.6-7.1,30.9-14.1,46.6-14.1c3,0,6,0.3,9,0.8c3.1,0.6,6.2,1.5,9.2,2.9c4.2,1.9,8,4.4,11.3,7.5c10.5,9.5,17,23.7,22,37.3   c0.5,1.2,0.9,2.4,1.3,3.7c2,5.8,3.7,11.9,4.5,18c1.3,10,0.3,19.8-5.8,27.7c-3.6,4.7-8.9,8.4-10.7,14.1   c-3.3,10.6,7.2,20.1,16.5,26.3c16.5,11,33,22,49.5,33.1c-2.7-2.7,12.6-21.4,14.6-23.6c7.8-8.3,12.3-5,22.3-1.3   c4.1,1.5,8.1,3.1,12.2,4.6c16.9,6.3,33.8,12.7,50.7,19c6.6,2.5,13.9,5.6,16.4,12.2C404,308.9,403.6,313,403.2,316.9z"/></g></svg>