<?xml version="1.0" ?><!DOCTYPE svg  PUBLIC '-//W3C//DTD SVG 1.1//EN'  'http://www.w3.org/Graphics/SVG/1.1/DTD/svg11.dtd'><svg height="100%" style="fill-rule:evenodd;clip-rule:evenodd;stroke-linejoin:round;stroke-miterlimit:2;" version="1.1" viewBox="0 0 512 512" width="100%" xml:space="preserve" xmlns="http://www.w3.org/2000/svg" xmlns:serif="http://www.serif.com/" xmlns:xlink="http://www.w3.org/1999/xlink"><g transform="matrix(1.04384,0,0,1.04384,-17.9304,-8.96062)"><g transform="matrix(1,0,0,1,20,29)"><g transform="matrix(1.38287,0,0,1.38287,-98.3694,-104.079)"><path d="M113.799,325.261C101.49,302.346 98.066,275.921 94.506,248.332C81.974,151.187 154.187,77.95 256.925,85.627C295.38,88.501 359.677,121.993 359.677,121.993C359.677,121.993 372.307,133.515 378.277,140.234C403.819,168.984 419.344,206.856 419.344,248.332C419.344,338.132 346.567,411.037 256.925,411.037C231.586,411.037 207.595,405.212 186.22,394.83L186.221,394.831L103.033,411.037L82.063,390.066L113.799,325.261L113.799,325.261ZM136.2,375.467L190.874,365.157L190.874,365.156C210.276,376.117 232.674,382.371 256.521,382.371C330.373,382.371 390.332,322.381 390.332,248.49C390.332,174.598 330.373,114.608 256.521,114.608C182.669,114.608 122.711,174.598 122.711,248.49C122.711,274.854 130.344,299.449 143.514,320.175L143.514,320.174L136.2,375.467Z" style="fill:white;stroke:black;stroke-width:7.07px;stroke-linecap:round;stroke-miterlimit:3;"/></g><g transform="matrix(1.38287,0,0,1.38287,-98.3694,-104.079)"><path d="M338.062,290.822C336.939,288.102 316.525,269.009 316.525,269.009C316.525,269.009 305.611,270.833 302.333,269.173C299.777,268.355 296.181,267.876 294.284,269.774L277.464,288.155C275.497,289.211 273.865,289.261 272.539,288.395C248.21,276.143 229.376,258.678 217.542,234.573C216.611,233.301 216.631,231.84 217.301,230.248L229.435,216.732C231.999,213.489 232.759,209.524 230.517,204.358L220.065,175.104C218.823,171.74 217.625,169.714 215.348,167.206C210.692,162.08 196.407,149.364 196.407,149.364L188.512,254.976C188.512,254.976 217.32,288.344 240.67,305.275C256.643,315.113 273.473,322.668 291.369,327.38C298.084,328.291 303.824,328.031 308.937,327.02C338.648,321.144 339.136,293.423 338.062,290.822Z" style="fill:white;stroke:black;stroke-width:7.07px;stroke-linecap:round;stroke-miterlimit:3;"/></g></g><g transform="matrix(3.3571,0,0,3.3571,-479.384,142.474)"><path d="M170,59.072L177.345,66.64" style="fill:none;stroke:black;stroke-width:2.92px;stroke-linecap:round;stroke-linejoin:miter;stroke-miterlimit:5;"/></g><g transform="matrix(3.3571,0,0,3.3571,-357.068,-7.1808)"><path d="M169.73,58.802L178.264,67.559" style="fill:none;stroke:black;stroke-width:2.92px;stroke-linecap:round;stroke-linejoin:miter;stroke-miterlimit:5;"/></g><g transform="matrix(3.3571,0,0,3.3571,-364.107,-35.8075)"><path d="M169.394,58.449L178.249,67.544" style="fill:none;stroke:black;stroke-width:2.92px;stroke-linecap:round;stroke-linejoin:miter;stroke-miterlimit:5;"/></g><g transform="matrix(3.3571,0,0,3.3571,-371.806,15.6138)"><path d="M169.151,58.223L177.597,66.899" style="fill:none;stroke:black;stroke-width:2.92px;stroke-linecap:round;stroke-linejoin:miter;stroke-miterlimit:5;"/></g><g transform="matrix(3.3571,0,0,3.3571,-216.82,130.77)"><path d="M169.577,58.649L177.345,66.64" style="fill:none;stroke:black;stroke-width:2.92px;stroke-linecap:round;stroke-linejoin:miter;stroke-miterlimit:5;"/></g><g transform="matrix(3.3571,0,0,3.3571,-236.82,148.77)"><path d="M169.283,58.355L177.345,66.64" style="fill:none;stroke:black;stroke-width:2.92px;stroke-linecap:round;stroke-linejoin:miter;stroke-miterlimit:5;"/></g><g transform="matrix(3.3571,0,0,3.3571,-268.82,152.77)"><path d="M169.438,58.493L177.633,66.937" style="fill:none;stroke:black;stroke-width:2.92px;stroke-linecap:round;stroke-linejoin:miter;stroke-miterlimit:5;"/></g><g transform="matrix(3.3571,0,0,3.3571,-307.82,139.77)"><path d="M169.687,58.759L177.894,67.189" style="fill:none;stroke:black;stroke-width:2.92px;stroke-linecap:round;stroke-linejoin:miter;stroke-miterlimit:5;"/></g><g transform="matrix(3.3571,0,0,3.3571,-502.669,263.022)"><path d="M169.149,58.221L177.6,66.895" style="fill:none;stroke:black;stroke-width:2.92px;stroke-linecap:round;stroke-linejoin:miter;stroke-miterlimit:5;"/></g><g transform="matrix(3.3571,0,0,3.3571,-419.669,246.022)"><path d="M169.641,58.427L178.373,66.991" style="fill:none;stroke:black;stroke-width:2.92px;stroke-linecap:round;stroke-linejoin:miter;stroke-miterlimit:5;"/></g><g transform="matrix(3.3571,0,0,3.3571,-445.669,251.022)"><path d="M169.387,58.441L177.746,67.041" style="fill:none;stroke:black;stroke-width:2.92px;stroke-linecap:round;stroke-linejoin:miter;stroke-miterlimit:5;"/></g><g transform="matrix(3.3571,0,0,3.3571,-475.669,257.022)"><path d="M169.349,58.402L177.568,66.863" style="fill:none;stroke:black;stroke-width:2.92px;stroke-linecap:round;stroke-linejoin:miter;stroke-miterlimit:5;"/></g><g transform="matrix(3.3571,0,0,3.3571,-386.669,257.022)"><path d="M169.776,58.847L178.185,67.48" style="fill:none;stroke:black;stroke-width:2.92px;stroke-linecap:round;stroke-linejoin:miter;stroke-miterlimit:5;"/></g><g transform="matrix(3.3571,0,0,3.3571,-351.669,265.022)"><path d="M169.479,58.535L177.912,67.207" style="fill:none;stroke:black;stroke-width:2.92px;stroke-linecap:round;stroke-linejoin:miter;stroke-miterlimit:5;"/></g><g transform="matrix(3.3571,0,0,3.3571,-316.771,267.726)"><path d="M169.492,58.564L177.907,67.203" style="fill:none;stroke:black;stroke-width:2.92px;stroke-linecap:round;stroke-linejoin:miter;stroke-miterlimit:5;"/></g><g transform="matrix(3.3571,0,0,3.3571,-285.771,264.726)"><path d="M169.552,58.624L177.981,67.295" style="fill:none;stroke:black;stroke-width:2.92px;stroke-linecap:round;stroke-linejoin:miter;stroke-miterlimit:5;"/></g><g transform="matrix(3.3571,0,0,3.3571,-256.771,256.726)"><path d="M169.867,58.935L178.273,67.568" style="fill:none;stroke:black;stroke-width:2.92px;stroke-linecap:round;stroke-linejoin:miter;stroke-miterlimit:5;"/></g><g transform="matrix(3.3571,0,0,3.3571,-227.771,246.726)"><path d="M169.635,58.706L178.12,67.415" style="fill:none;stroke:black;stroke-width:2.92px;stroke-linecap:round;stroke-linejoin:miter;stroke-miterlimit:5;"/></g><g transform="matrix(3.3571,0,0,3.3571,-202.771,233.726)"><path d="M169.505,58.577L178.027,67.342" style="fill:none;stroke:black;stroke-width:2.92px;stroke-linecap:round;stroke-linejoin:miter;stroke-miterlimit:5;"/></g><g transform="matrix(3.3571,0,0,3.3571,-177.771,218.726)"><path d="M169.051,58.094L177.548,66.849" style="fill:none;stroke:black;stroke-width:2.92px;stroke-linecap:round;stroke-linejoin:miter;stroke-miterlimit:5;"/></g><g transform="matrix(3.3571,0,0,3.3571,-156.771,198.726)"><path d="M169.338,58.39L177.635,66.939" style="fill:none;stroke:black;stroke-width:2.92px;stroke-linecap:round;stroke-linejoin:miter;stroke-miterlimit:5;"/></g><g transform="matrix(3.3571,0,0,3.3571,-139.771,176.726)"><path d="M169.345,58.397L177.873,67.184" style="fill:none;stroke:black;stroke-width:2.92px;stroke-linecap:round;stroke-linejoin:miter;stroke-miterlimit:5;"/></g><g transform="matrix(3.3571,0,0,3.3571,-123.771,153.726)"><path d="M169.125,58.196L177.68,66.984" style="fill:none;stroke:black;stroke-width:2.92px;stroke-linecap:round;stroke-linejoin:miter;stroke-miterlimit:5;"/></g><g transform="matrix(3.3571,0,0,3.3571,-112.771,128.726)"><path d="M169.437,58.509L177.909,67.221" style="fill:none;stroke:black;stroke-width:2.92px;stroke-linecap:round;stroke-linejoin:miter;stroke-miterlimit:5;"/></g><g transform="matrix(3.3571,0,0,3.3571,-102.771,99.7264)"><path d="M169.259,58.331L177.852,67.147" style="fill:none;stroke:black;stroke-width:2.92px;stroke-linecap:round;stroke-linejoin:miter;stroke-miterlimit:5;"/></g><g transform="matrix(3.3571,0,0,3.3571,-96.7715,68.7264)"><path d="M169.174,58.246L177.79,67.085" style="fill:none;stroke:black;stroke-width:2.92px;stroke-linecap:round;stroke-linejoin:miter;stroke-miterlimit:5;"/></g><g transform="matrix(3.3571,0,0,3.3571,-95.7715,32.7264)"><path d="M169.204,58.251L177.855,67.166" style="fill:none;stroke:black;stroke-width:2.92px;stroke-linecap:round;stroke-linejoin:miter;stroke-miterlimit:5;"/></g><g transform="matrix(3.3571,0,0,3.3571,-100.771,-6.27356)"><path d="M169.23,58.279L177.795,67.104" style="fill:none;stroke:black;stroke-width:2.92px;stroke-linecap:round;stroke-linejoin:miter;stroke-miterlimit:5;"/></g><g transform="matrix(3.3571,0,0,3.3571,-115.771,-49.2736)"><path d="M169.311,58.362L178.086,67.381" style="fill:none;stroke:black;stroke-width:2.92px;stroke-linecap:round;stroke-linejoin:miter;stroke-miterlimit:5;"/></g><g transform="matrix(3.3571,0,0,3.3571,-246.771,-126.274)"><path d="M169.427,58.499L177.565,66.867" style="fill:none;stroke:black;stroke-width:2.92px;stroke-linecap:round;stroke-linejoin:miter;stroke-miterlimit:5;"/></g><g transform="matrix(3.3571,0,0,3.3571,-283.771,-138.274)"><path d="M169.479,58.55L177.673,66.968" style="fill:none;stroke:black;stroke-width:2.92px;stroke-linecap:round;stroke-linejoin:miter;stroke-miterlimit:5;"/></g><g transform="matrix(3.3571,0,0,3.3571,-316.771,-141.274)"><path d="M169.253,58.302L177.637,66.932" style="fill:none;stroke:black;stroke-width:2.92px;stroke-linecap:round;stroke-linejoin:miter;stroke-miterlimit:5;"/></g><g transform="matrix(3.3571,0,0,3.3571,-347.771,-140.274)"><path d="M169.483,58.539L177.928,67.223" style="fill:none;stroke:black;stroke-width:2.92px;stroke-linecap:round;stroke-linejoin:miter;stroke-miterlimit:5;"/></g><g transform="matrix(3.3571,0,0,3.3571,-375.771,-134.274)"><path d="M169.524,58.596L177.803,67.111" style="fill:none;stroke:black;stroke-width:2.92px;stroke-linecap:round;stroke-linejoin:miter;stroke-miterlimit:5;"/></g><g transform="matrix(3.3571,0,0,3.3571,-401.771,-124.274)"><path d="M169.565,58.624L177.676,66.971" style="fill:none;stroke:black;stroke-width:2.92px;stroke-linecap:round;stroke-linejoin:miter;stroke-miterlimit:5;"/></g><g transform="matrix(3.3571,0,0,3.3571,-426.771,-111.274)"><path d="M169.824,58.896L177.987,67.302" style="fill:none;stroke:black;stroke-width:2.92px;stroke-linecap:round;stroke-linejoin:miter;stroke-miterlimit:5;"/></g><g transform="matrix(3.3571,0,0,3.3571,-446.771,-93.2736)"><path d="M169.481,58.538L177.859,67.155" style="fill:none;stroke:black;stroke-width:2.92px;stroke-linecap:round;stroke-linejoin:miter;stroke-miterlimit:5;"/></g><g transform="matrix(3.3571,0,0,3.3571,-464.771,-72.2736)"><path d="M169.216,58.287L177.345,66.64" style="fill:none;stroke:black;stroke-width:2.92px;stroke-linecap:round;stroke-linejoin:miter;stroke-miterlimit:5;"/></g><g transform="matrix(3.3571,0,0,3.3571,-480.771,-49.2736)"><path d="M169.243,58.315L177.769,67.075" style="fill:none;stroke:black;stroke-width:2.92px;stroke-linecap:round;stroke-linejoin:miter;stroke-miterlimit:5;"/></g><g transform="matrix(3.3571,0,0,3.3571,-493.771,-25.2736)"><path d="M169.513,58.571L177.709,67.004" style="fill:none;stroke:black;stroke-width:2.92px;stroke-linecap:round;stroke-linejoin:miter;stroke-miterlimit:5;"/></g><g transform="matrix(3.3571,0,0,3.3571,-501.771,3.72644)"><path d="M169.315,58.366L177.688,66.983" style="fill:none;stroke:black;stroke-width:2.92px;stroke-linecap:round;stroke-linejoin:miter;stroke-miterlimit:5;"/></g><g transform="matrix(3.3571,0,0,3.3571,-506.771,34.7264)"><path d="M169.57,58.642L178.072,67.39" style="fill:none;stroke:black;stroke-width:2.92px;stroke-linecap:round;stroke-linejoin:miter;stroke-miterlimit:5;"/></g><g transform="matrix(3.3571,0,0,3.3571,-503.771,71.7264)"><path d="M169.249,58.297L177.654,66.64" style="fill:none;stroke:black;stroke-width:2.92px;stroke-linecap:round;stroke-linejoin:miter;stroke-miterlimit:5;"/></g><g transform="matrix(3.3571,0,0,3.3571,-495.771,104.726)"><path d="M169.326,58.377L177.919,67.231" style="fill:none;stroke:black;stroke-width:2.92px;stroke-linecap:round;stroke-linejoin:miter;stroke-miterlimit:5;"/></g><g transform="matrix(3.3571,0,0,3.3571,-481.771,172.726)"><path d="M169.443,58.498L178.053,67.349" style="fill:none;stroke:black;stroke-width:2.92px;stroke-linecap:round;stroke-linejoin:miter;stroke-miterlimit:5;"/></g><g transform="matrix(3.3571,0,0,3.3571,-485.771,202.726)"><path d="M169.451,58.507L177.345,66.64" style="fill:none;stroke:black;stroke-width:2.92px;stroke-linecap:round;stroke-linejoin:miter;stroke-miterlimit:5;"/></g><g transform="matrix(1,0,0,1,-9,0)"><g transform="matrix(1.38287,0,0,1.38287,-98.3694,-104.079)"><path d="M113.799,325.261C101.49,302.346 94.506,276.15 94.506,248.332C94.506,158.533 167.284,85.627 256.925,85.627C346.567,85.627 419.344,158.533 419.344,248.332C419.344,338.132 346.567,411.037 256.925,411.037C231.586,411.037 207.595,405.212 186.22,394.83L186.221,394.831L103.033,411.037L113.799,325.261L113.799,325.261ZM136.2,375.467L190.874,365.157L190.874,365.156C210.276,376.117 232.674,382.371 256.521,382.371C330.373,382.371 390.332,322.381 390.332,248.49C390.332,174.598 330.373,114.608 256.521,114.608C182.669,114.608 122.711,174.598 122.711,248.49C122.711,274.854 130.344,299.449 143.514,320.175L143.514,320.174L136.2,375.467Z" style="fill:white;stroke:black;stroke-width:7.07px;stroke-linecap:round;stroke-miterlimit:3;"/></g><g transform="matrix(1.38287,0,0,1.38287,-98.3694,-104.079)"><path d="M338.062,290.822C336.523,287.095 314.464,275.317 302.333,269.173C299.777,268.355 296.181,267.876 294.284,269.774L277.464,288.155C275.497,289.211 273.865,289.261 272.539,288.395C248.21,276.143 229.376,258.678 217.542,234.573C216.611,233.301 216.631,231.84 217.301,230.248L229.435,216.732C231.999,213.489 232.759,209.524 230.517,204.358L220.065,175.104C218.823,171.74 217.101,169.498 214.899,168.376C209.157,166.834 201.165,166.772 196.566,169.41C172.257,183.349 170.151,213.102 188.512,245.265C201.287,267.644 217.32,288.344 240.67,305.275C256.643,315.113 273.473,322.668 291.369,327.38C298.084,328.291 303.824,328.031 308.937,327.02C338.648,321.144 339.136,293.423 338.062,290.822Z" style="fill:white;stroke:black;stroke-width:7.07px;stroke-linecap:round;stroke-miterlimit:3;"/></g></g></g></svg>