<?xml version="1.0" ?><!DOCTYPE svg  PUBLIC '-//W3C//DTD SVG 1.1//EN'  'http://www.w3.org/Graphics/SVG/1.1/DTD/svg11.dtd'><svg enable-background="new 0 0 512 512" version="1.1" viewBox="0 0 512 512" xml:space="preserve" xmlns="http://www.w3.org/2000/svg" xmlns:xlink="http://www.w3.org/1999/xlink"><g id="Layer_1"><g id="Layer_1_1_"><path d="M441.7,392.1L281,484.9c-15.5,8.9-34.5,8.9-50,0L70.3,392.1c-15.5-8.9-25-25.4-25-43.3V163.2    c0-17.9,9.5-34.4,25-43.3L231,27.1c15.5-8.9,34.5-8.9,50,0l160.7,92.8c15.5,8.9,25,25.4,25,43.3v185.6    C466.7,366.6,457.2,383.2,441.7,392.1z" fill="#4DC247"/></g></g><g id="Layer_2_1_"><g><path d="M368.8,243.5c-0.3,29.3-7.8,52.3-23.5,72.2c-16.8,21.4-38.8,35-65.6,40.5c-20.7,4.2-40.9,2.4-60.7-4.8    c-4.4-1.6-8.7-3.5-12.8-5.8c-1.2-0.7-2.3-0.8-3.7-0.3c-18.7,6.1-37.5,12.1-56.3,18.1c-0.8,0.3-1.9,1.1-2.6,0.5    c-0.7-0.7,0.2-1.9,0.5-2.7c3.7-11.2,7.5-22.4,11.3-33.5c2.3-6.8,4.5-13.6,6.9-20.3c0.6-1.8,0.4-3.1-0.6-4.7    c-4.8-8.1-8.3-16.8-10.8-26c-4.7-17.1-5.2-34.4-1.5-51.7c4-18.9,12.3-35.7,25.1-50.3c15.5-17.6,34.6-29.2,57.3-34.8    c14.5-3.6,29.1-4.1,43.8-1.7c19.3,3.1,36.6,10.8,51.7,23.1c15.7,12.8,27.2,28.7,34.4,47.9C365.8,219.4,368.9,236.3,368.8,243.5z     M171.7,335.9c11.5-3.7,22.4-7.2,33.3-10.8c1.4-0.5,2.6-0.4,3.8,0.5c4.2,2.8,8.7,5,13.3,6.9c15,6.4,30.7,8.7,46.8,6.6    c19.8-2.5,37.2-10.5,51.8-24.3c18.4-17.4,28.3-38.8,29.2-64.1c0.8-24.8-7.1-46.5-23.7-65c-15.8-17.5-35.6-27.5-59-30    c-20.3-2.2-39.3,2.2-56.9,12.8c-15,9.1-26.6,21.4-34.6,37c-8.8,17.2-11.8,35.4-9.3,54.5c1.9,14.4,7.1,27.7,15.4,39.7    c0.9,1.3,1.2,2.5,0.6,4c-1.7,4.7-3.2,9.5-4.9,14.2C175.7,323.8,173.8,329.6,171.7,335.9z" fill="#FFFFFF"/><path d="M202.5,221.7c0.2-11,4.1-19.2,11.5-25.7c2.4-2.1,5.3-3.1,8.6-2.6c1.4,0.2,2.8,0.3,4.2,0.2    c2.6-0.1,4.4,1.1,5.2,3.4c3.1,8.1,6.1,16.1,9.1,24.2c1,2.8-0.7,5-2.2,6.9c-1.7,2.4-3.8,4.4-5.8,6.5c-2.1,2.1-2.4,3.3-0.9,5.9    c8.4,15.2,20.1,26.9,36.1,34.2c0.6,0.2,1.1,0.6,1.7,0.8c2.1,1,4,0.7,5.6-1.1c3-3.5,6.2-6.7,8.9-10.3c1.8-2.4,3.1-2.8,5.8-1.6    c8.1,3.5,15.8,8,23.6,12.3c1.4,0.8,1.9,2,1.9,3.7c-0.4,13.7-8.2,20.8-22,23.9c-6.7,1.5-12.8-0.1-18.9-2.4    c-12.8-4.6-25.2-10.1-35.5-19.3c-8.2-7.3-15.5-15.5-21.7-24.6c-4.7-7-9.6-13.9-12.4-22.1C203.6,229.7,202.4,225.3,202.5,221.7z" fill="#FFFFFF"/></g></g></svg>