<?xml version="1.0" ?><svg height="50px" id="Слой_1" style="enable-background:new 0 0 50 50;" version="1.1" viewBox="0 0 50 50" width="50px" xml:space="preserve" xmlns="http://www.w3.org/2000/svg" xmlns:xlink="http://www.w3.org/1999/xlink"><style type="text/css">
	.st0{fill-rule:evenodd;clip-rule:evenodd;fill:#ED74A5;}
	.st1{fill:#444B54;}
	.st2{fill:#FFFFFF;}
	.st3{fill-rule:evenodd;clip-rule:evenodd;fill:#FFFFFF;}
	.st4{fill-rule:evenodd;clip-rule:evenodd;fill:#F6F7F7;}
	.st5{fill-rule:evenodd;clip-rule:evenodd;fill:#F8C9DC;}
	.st6{fill:#ED74A5;}
	.st7{fill-rule:evenodd;clip-rule:evenodd;fill:#659EC9;}
	.st8{fill-rule:evenodd;clip-rule:evenodd;fill:#FF697B;}
	.st9{fill-rule:evenodd;clip-rule:evenodd;fill:#74CAFC;}
	.st10{fill-rule:evenodd;clip-rule:evenodd;fill:#41CEB3;}
	.st11{fill-rule:evenodd;clip-rule:evenodd;fill:#FFEB6B;}
	.st12{fill-rule:evenodd;clip-rule:evenodd;fill:#387FB5;}
	.st13{fill-rule:evenodd;clip-rule:evenodd;fill:#FC913A;}
	.st14{fill-rule:evenodd;clip-rule:evenodd;fill:#3C688A;}
	.st15{fill-rule:evenodd;clip-rule:evenodd;fill:#6F4BB3;}
	.st16{fill-rule:evenodd;clip-rule:evenodd;fill:#38E8A1;}
	.st17{fill-rule:evenodd;clip-rule:evenodd;fill:#45BBFF;}
</style><g><path class="st10" d="M24.9999,1.64949c5.04744,0,9.93716,0.47251,14.51141,1.25998   c3.94332,0.70871,6.94024,3.62237,7.65004,7.63846c0.78866,4.4886,1.183,9.37091,1.183,14.41074   c0,5.11855-0.39434,10.00086-1.183,14.48945c-0.7098,3.93733-3.70672,6.92976-7.65004,7.63846   c-4.57426,0.78746-9.46397,1.25994-14.51141,1.25994c-5.04745,0-9.93717-0.47247-14.51142-1.25994   c-3.94332-0.70871-6.86137-3.70113-7.57117-7.63846c-0.86753-4.4886-1.26187-9.37091-1.26187-14.48945   c0-5.03983,0.39433-9.92214,1.26187-14.41074c0.7098-4.01609,3.62785-6.92975,7.57117-7.63846   C15.06274,2.12201,19.95245,1.64949,24.9999,1.64949L24.9999,1.64949z"/><path class="st1" d="M24.99932,50c-4.8689,0-9.84649-0.43135-14.79147-1.28456c-4.58905-0.82337-8.08586-4.34473-8.92134-8.97432   C0.43472,35.32586,0,30.3463,0,24.95846c0-5.33494,0.43472-10.28872,1.29059-14.72433   c0.82733-4.67299,4.24127-8.11297,8.90504-8.95261c9.93479-1.70914,19.6889-1.70778,29.59652-0.00136   c4.65562,0.83693,8.18367,4.36101,9.00013,8.97974l0.48227,3.36266c0.12906,0.9034-0.49993,1.74169-1.40606,1.87055   c-0.89118,0.11937-1.74433-0.50053-1.87339-1.40393l-0.47412-3.30568c-0.57193-3.23786-2.99144-5.651-6.30349-6.24648   C29.7052,2.90112,20.30702,2.89976,10.77028,4.53836C7.52072,5.123,5.1311,7.53749,4.5483,10.83503   c-0.8219,4.2552-1.23624,8.99737-1.23624,14.12342c0,5.1776,0.41435,9.9469,1.23081,14.17633   c0.60046,3.32467,2.99008,5.74052,6.23964,6.3238c9.49599,1.63589,18.92678,1.63724,28.44722-0.00136   c3.23869-0.58192,5.71661-3.0561,6.30077-6.30209c0.76756-4.36372,1.15745-9.14252,1.15745-14.19667v-1.18147   c0-0.9129,0.74175-1.65352,1.65602-1.65352S50,22.86409,50,23.77699v1.18147c0,5.24542-0.4062,10.21683-1.20772,14.77588   c-0.83413,4.62687-4.36082,8.14824-8.98791,8.97974C34.84717,49.56865,29.86958,50,24.99932,50z"/><path class="st1" d="M48.18367,20.78464c-0.8219,0-1.53648-0.61176-1.64108-1.44869l-0.0788-0.6294   c-0.11275-0.90611,0.53118-1.73219,1.43866-1.84614c0.88982-0.10716,1.73482,0.52766,1.84893,1.43649l0.07879,0.62939   c0.11276,0.90611-0.53118,1.73219-1.43866,1.84614C48.32224,20.78057,48.25296,20.78464,48.18367,20.78464z"/><path class="st2" d="M10.56786,41.02297c-0.43472,0-0.85858-0.17091-1.17239-0.48561   c-0.40212-0.40287-0.56922-0.98343-0.44152-1.53687l1.73482-7.55953c0.20378-0.88984,1.09904-1.4487,1.98343-1.24251   c0.89254,0.20347,1.44953,1.09059,1.2444,1.98042L12.77,37.17471l5.08083-1.15028c0.40076-0.08953,0.81918-0.02848,1.17647,0.16956   c1.68727,0.9441,3.75221,1.44327,5.97202,1.44327c7.04524,0,12.7768-5.72289,12.7768-12.75747s-5.73156-12.75747-12.7768-12.75747   c-7.04388,0-12.77544,5.72289-12.77544,12.75747c0,0.73249,0.07608,1.46226,0.14944,2.19475   c0.09102,0.90883-0.57329,1.71863-1.48349,1.80951c-0.89118,0.07732-1.72259-0.57242-1.81225-1.48125   c-0.08423-0.841-0.16574-1.68201-0.16574-2.52301c0-8.85766,7.21641-16.06451,16.08749-16.06451   s16.08885,7.20685,16.08885,16.06451S33.8704,40.9443,24.99932,40.9443c-2.54313,0-4.95313-0.53716-7.01263-1.55857   l-7.05203,1.59655C10.81239,41.00941,10.69012,41.02297,10.56786,41.02297z"/><path class="st2" d="M30.56107,33.39833c-3.77258,0-7.37264-1.45276-9.96604-4.04224   c-2.83114-2.91774-4.29289-6.79313-4.02934-10.65225c0.04891-0.72706,0.56922-1.33475,1.27972-1.49888   c2.06494-0.47612,3.17756-0.71485,3.17756-0.71485c0.89526-0.18041,1.76878,0.37167,1.96576,1.25879   c0.56922,2.56235,0.99986,3.1619,1.00394,3.16732c0.5339,0.71892,0.4225,1.76475-0.28121,2.31683   c-0.70507,0.55615-1.69406,0.48154-2.27143-0.20889c-0.31517-0.37709-0.76484-1.08517-1.28651-2.953   c-0.09374,0.0217-0.19019,0.04341-0.29072,0.06647c0.13721,2.51623,1.22945,4.97819,3.09333,6.89894   c2.07037,2.06724,5.02921,3.20124,8.12118,3.04253c0.91428-0.04476,1.68863,0.66467,1.72938,1.57756   c0.04076,0.91154-0.66567,1.68472-1.57995,1.72677C31.0053,33.39291,30.7825,33.39833,30.56107,33.39833z"/><path class="st2" d="M31.15338,33.38477c-0.11819,0-0.2391-0.01221-0.36-0.03934c-0.89254-0.19804-1.45633-1.0811-1.25798-1.97229   c0.14128-0.63618,0.25404-1.17062,0.34099-1.60469c-1.42236-0.41508-2.32849-0.75826-2.91944-1.17876   c-0.74582-0.53037-0.91971-1.56264-0.38853-2.30598c0.53254-0.74334,1.56636-0.91696,2.30947-0.38795   c0.432,0.30656,2.61785,0.89526,3.33514,1.08924c0.81511,0.21975,1.33406,1.01599,1.20636,1.84749   c0,0-0.16166,1.05803-0.65073,3.25685C32.59747,32.85982,31.91278,33.38477,31.15338,33.38477z"/></g></svg>